<svg xmlns="http://www.w3.org/2000/svg" width="40.399" height="40.399" viewBox="0 0 40.399 40.399">
  <g id="Group_139" data-name="Group 139" transform="translate(0 0)">
    <path id="Path_5570" data-name="Path 5570" d="M22.729,8.322a3.484,3.484,0,0,0-2-2,5.82,5.82,0,0,0-1.953-.362c-1.109-.05-1.441-.063-4.25-.063s-3.141.013-4.25.063a5.82,5.82,0,0,0-1.955.362,3.484,3.484,0,0,0-2,2,5.82,5.82,0,0,0-.362,1.953c-.05,1.109-.063,1.441-.063,4.25s.013,3.141.063,4.25a5.82,5.82,0,0,0,.362,1.955,3.484,3.484,0,0,0,2,2,5.82,5.82,0,0,0,1.953.362c1.109.05,1.441.063,4.25.063s3.141-.013,4.25-.063a5.82,5.82,0,0,0,1.955-.362,3.484,3.484,0,0,0,2-2,5.82,5.82,0,0,0,.362-1.953c.05-1.109.063-1.441.063-4.25s-.013-3.141-.063-4.25a5.82,5.82,0,0,0-.362-1.955Zm-8.2,11.608a5.4,5.4,0,1,1,5.4-5.4,5.4,5.4,0,0,1-5.4,5.4Zm5.616-9.757a1.262,1.262,0,1,1,1.262-1.262,1.262,1.262,0,0,1-1.262,1.262Z" transform="translate(5.672 5.672)" fill="#d8c085"/>
    <circle id="Ellipse_1" data-name="Ellipse 1" cx="3.507" cy="3.507" r="3.507" transform="translate(16.692 16.692)" fill="#d8c085"/>
    <path id="Path_5571" data-name="Path 5571" d="M20.6.4A20.2,20.2,0,1,0,40.8,20.6,20.2,20.2,0,0,0,20.6.4ZM31.057,24.938a7.722,7.722,0,0,1-.49,2.552,5.378,5.378,0,0,1-3.076,3.076,7.722,7.722,0,0,1-2.552.49c-1.124.05-1.481.063-4.339.063s-3.215-.013-4.339-.063a7.722,7.722,0,0,1-2.552-.49,5.378,5.378,0,0,1-3.076-3.076,7.722,7.722,0,0,1-.49-2.552c-.05-1.124-.063-1.481-.063-4.339s.013-3.215.063-4.339a7.722,7.722,0,0,1,.49-2.552,5.378,5.378,0,0,1,3.076-3.076,7.722,7.722,0,0,1,2.552-.49c1.124-.05,1.481-.063,4.339-.063s3.215.013,4.339.063a7.722,7.722,0,0,1,2.552.49,5.378,5.378,0,0,1,3.076,3.076,7.722,7.722,0,0,1,.49,2.552c.05,1.124.063,1.481.063,4.339s-.013,3.215-.063,4.339Z" transform="translate(-0.4 -0.4)" fill="#d8c085"/>
  </g>
</svg>
