<svg xmlns="http://www.w3.org/2000/svg" width="31.207" height="32.153" viewBox="0 0 31.207 32.153">
  <g id="Group_239" data-name="Group 239" transform="translate(-1.626 -1)">
    <path id="Path_5769" data-name="Path 5769" d="M26.485,12.883a.66.66,0,0,1-.7-.7V6.592a4.194,4.194,0,0,0-8.388,0v5.592a.7.7,0,1,1-1.4,0V6.592a5.592,5.592,0,0,1,11.184,0v5.592A.66.66,0,0,1,26.485,12.883Z" transform="translate(-4.327)" fill="#d8c085"/>
    <path id="Path_5770" data-name="Path 5770" d="M30.406,36.163H4.124a2.6,2.6,0,0,1-1.957-.909,2.519,2.519,0,0,1-.489-2.1l4.753-20.2A2.525,2.525,0,0,1,8.877,11H25.653a2.4,2.4,0,0,1,2.377,1.887l4.753,20.2a2.519,2.519,0,0,1-.489,2.1A2.229,2.229,0,0,1,30.406,36.163ZM8.877,12.4a1.113,1.113,0,0,0-1.048.839l-4.753,20.2a1.06,1.06,0,0,0,.21.909,1,1,0,0,0,.839.419H30.406a1,1,0,0,0,.839-.419,1.06,1.06,0,0,0,.21-.909L26.7,13.237a1.113,1.113,0,0,0-1.048-.839Z" transform="translate(0 -3.01)" fill="#d8c085"/>
    <path id="Path_5771" data-name="Path 5771" d="M23.011,34.284a1.381,1.381,0,0,1-.583-.194c-.777-.486-8.062-5.245-5.634-9.616A3.743,3.743,0,0,1,19.32,22.53,5.6,5.6,0,0,1,23.011,23.7,5.426,5.426,0,0,1,26.7,22.53a3.641,3.641,0,0,1,2.525,1.943c2.331,4.274-4.468,8.936-5.537,9.616A2.471,2.471,0,0,1,23.011,34.284Zm-3.205-9.811h-.194c-.194,0-.68.1-1.068.971-1.263,2.234,2.525,5.44,4.468,6.8,1.943-1.36,5.731-4.565,4.468-6.8a1.907,1.907,0,0,0-1.068-.971,3.767,3.767,0,0,0-2.525,1.068c0,.1-.1.1-.1.194a.939.939,0,0,1-1.36,0A5.118,5.118,0,0,0,19.806,24.473Z" transform="translate(-5.605 -6.07)" fill="#d8c085"/>
  </g>
</svg>
