<svg xmlns="http://www.w3.org/2000/svg" width="14.364" height="18.607" viewBox="0 0 14.364 18.607">
  <g id="Group_142" data-name="Group 142" transform="translate(-5.318 -2.697)">
    <path id="Path_5573" data-name="Path 5573" d="M18.51,3.868a4,4,0,0,0-5.657,0L8.611,8.111a4,4,0,0,0,5.657,5.657l.5-.5a3.109,3.109,0,0,0-.5-.911,3.109,3.109,0,0,0-.911-.5l-.5.5a2,2,0,0,1-2.828-2.828l4.243-4.243A2,2,0,1,1,17.1,8.111l-.707.707a5.927,5.927,0,0,1,.8.627,5.638,5.638,0,0,1,.616.787l.707-.707A4,4,0,0,0,18.51,3.868Z" fill="#857c7c"/>
    <path id="Path_5574" data-name="Path 5574" d="M16.389,10.232a4,4,0,0,0-5.657,0l-.541.541a3.7,3.7,0,0,0,.544.876,3.616,3.616,0,0,0,.87.539l.541-.541a2,2,0,1,1,2.828,2.828l-4.243,4.243A2,2,0,1,1,7.9,15.889l.779-.779a7.833,7.833,0,0,1-.779-.635,7.834,7.834,0,0,1-.635-.779l-.779.779a4,4,0,1,0,5.657,5.657l4.243-4.243A4,4,0,0,0,16.389,10.232Z" fill="#857c7c"/>
  </g>
</svg>
