<svg xmlns="http://www.w3.org/2000/svg" width="17.254" height="17.254" viewBox="0 0 17.254 17.254">
  <path id="Path_5570" data-name="Path 5570" d="M22.729,8.322a3.484,3.484,0,0,0-2-2,5.82,5.82,0,0,0-1.953-.362c-1.109-.05-1.441-.063-4.25-.063s-3.141.013-4.25.063a5.82,5.82,0,0,0-1.955.362,3.484,3.484,0,0,0-2,2,5.82,5.82,0,0,0-.362,1.953c-.05,1.109-.063,1.441-.063,4.25s.013,3.141.063,4.25a5.82,5.82,0,0,0,.362,1.955,3.484,3.484,0,0,0,2,2,5.82,5.82,0,0,0,1.953.362c1.109.05,1.441.063,4.25.063s3.141-.013,4.25-.063a5.82,5.82,0,0,0,1.955-.362,3.484,3.484,0,0,0,2-2,5.82,5.82,0,0,0,.362-1.953c.05-1.109.063-1.441.063-4.25s-.013-3.141-.063-4.25a5.82,5.82,0,0,0-.362-1.955Zm-8.2,11.608a5.4,5.4,0,1,1,5.4-5.4,5.4,5.4,0,0,1-5.4,5.4Zm5.616-9.757a1.262,1.262,0,1,1,1.262-1.262,1.262,1.262,0,0,1-1.262,1.262Z" transform="translate(-5.9 -5.9)" fill="#d8c085"/>
</svg>
