<svg xmlns="http://www.w3.org/2000/svg" width="21.829" height="21.475" viewBox="0 0 21.829 21.475">
  <path id="Path_15" data-name="Path 15" d="M5.5,16.023l.795-.064H21.059l2.77-9.664H6.563L6.209,2H2V4.147H4.233l.805,9.76a2.684,2.684,0,0,0,.719,5.272h.73a3.221,3.221,0,1,0,6.056,0h3.618a3.21,3.21,0,1,0,3.017-2.147H5.758a.537.537,0,0,1-.537-.537.526.526,0,0,1,.279-.472ZM19.18,19.18a1.074,1.074,0,1,1-1.074,1.074A1.074,1.074,0,0,1,19.18,19.18Zm-9.664,0a1.074,1.074,0,1,1-1.074,1.074A1.074,1.074,0,0,1,9.516,19.18Z" transform="translate(-2 -2)" fill="#d8c085"/>
</svg>
