<svg xmlns="http://www.w3.org/2000/svg" width="18.005" height="17.123" viewBox="0 0 18.005 17.123">
  <path id="Path_5564" data-name="Path 5564" d="M58.445,54.506H56.977V53.422a.422.422,0,1,0-.844,0v1.084H47.157V53.422a.422.422,0,1,0-.844,0v1.084H44.658a2.111,2.111,0,0,0-2.109,2.109v11.4a2.111,2.111,0,0,0,2.109,2.109H58.445a2.111,2.111,0,0,0,2.109-2.109v-11.4A2.111,2.111,0,0,0,58.445,54.506ZM59.71,68.015a1.267,1.267,0,0,1-1.265,1.265H44.658a1.267,1.267,0,0,1-1.265-1.265V60.056H59.71v7.959Zm-16.318-8.8v-2.6a1.267,1.267,0,0,1,1.265-1.265h1.656v1.084a.422.422,0,0,0,.844,0V55.349h8.976v1.084a.422.422,0,0,0,.844,0V55.349h1.468a1.267,1.267,0,0,1,1.265,1.265v2.6Z" transform="translate(-42.549 -53)" fill="#857c7c"/>
</svg>
