<svg xmlns="http://www.w3.org/2000/svg" width="41.616" height="41.616" viewBox="0 0 41.616 41.616">
  <path id="Path_5569" data-name="Path 5569" d="M22.8,2A20.808,20.808,0,1,0,43.611,22.808,20.808,20.808,0,0,0,22.8,2Zm6.616,31.53a1.468,1.468,0,0,1-2.085.731l-5.649-4.389-3.625,3.345a.624.624,0,0,1-.593.081l.695-6.218.022.018.014-.123s10.165-9.254,10.579-9.649.281-.479.281-.479c.024-.48-.752,0-.752,0L14.837,25.511,9.228,23.6s-.861-.309-.943-.988.971-1.04.971-1.04l22.3-8.859s1.833-.817,1.833.536Z" transform="translate(-1.994 -2)" fill="#d8c085"/>
</svg>
