<svg xmlns="http://www.w3.org/2000/svg" width="39.652" height="39.652" viewBox="0 0 39.652 39.652">
  <path id="Path_5572" data-name="Path 5572" d="M19.826,0A19.829,19.829,0,0,0,3.133,30.525l-3.078,8A.829.829,0,0,0,1.1,39.6l8.259-2.949A19.822,19.822,0,1,0,19.826,0Zm9.913,25.609c0,1.859-2.288,4.13-4.956,4.13-2.6,0-7.578-3.1-9.672-5.2s-5.2-7.078-5.2-9.672c0-2.67,2.272-4.956,4.13-4.956H15.7a.826.826,0,0,1,.74.461s1,2.024,1.647,3.293c.734,1.432-.646,3.118-1.431,3.912a9.932,9.932,0,0,0,2.1,3.316A9.9,9.9,0,0,0,22.073,23c.793-.786,2.478-2.168,3.912-1.431,1.269.653,3.289,1.646,3.291,1.646a.826.826,0,0,1,.463.742Z" fill="#d8c085"/>
</svg>
