<svg id="talaei_ru_takhti" xmlns="http://www.w3.org/2000/svg" width="37.564" height="18.886" viewBox="0 0 37.564 18.886">
  <path id="Path_5591" data-name="Path 5591" d="M40.262,74.6h-.2a3.775,3.775,0,0,0,.883-2.43v-.783a3.87,3.87,0,0,0-.043-.545.673.673,0,0,0,0-.471L38.348,63.55a4.6,4.6,0,0,0-4.284-2.97H11.431a4.6,4.6,0,0,0-4.282,2.964c-.008.02-.014.037-.02.057L5.062,71.01a5.771,5.771,0,0,0-.465,1.67l-.021.078a.706.706,0,0,0-.014.3q-.012.179-.012.358c0,.023,0,.043.006.066s-.006.043-.006.066a5.881,5.881,0,0,0,5.865,5.873l29.326.045h0a2.371,2.371,0,0,0,2.37-2.372v-.647A1.855,1.855,0,0,0,40.262,74.6ZM8.438,64a3.223,3.223,0,0,1,2.993-2.051H34.064a3.222,3.222,0,0,1,3,2.083l1.426,3.8a3.761,3.761,0,0,0-1.338-.25l-26.724-.045h-.01a5.83,5.83,0,0,0-3.245.977ZM40.747,77.094a1,1,0,0,1-1,1h0l-29.326-.045a4.513,4.513,0,0,1-4.5-4.505c0-.023,0-.043-.006-.066s.006-.043.006-.066a4.642,4.642,0,0,1,.025-.467l.4-1.438a4.491,4.491,0,0,1,4.079-2.6h.008l26.722.045a2.433,2.433,0,0,1,2.426,2.43v.783a2.433,2.433,0,0,1-2.43,2.43H11.591a1,1,0,0,1-1-1v-.129a1,1,0,0,1,1-1h24a.684.684,0,0,0,0-1.368h-24a2.372,2.372,0,0,0-2.37,2.37V73.6a2.372,2.372,0,0,0,2.37,2.37H40.264a.484.484,0,0,1,.485.484v.645Z" transform="translate(-4.55 -60.58)" fill="#d8c085"/>
  <path id="Path_5592" data-name="Path 5592" d="M29.948,76.861a.489.489,0,0,0,.488-.488,1.778,1.778,0,0,1,1.848-1.846.488.488,0,0,0,0-.977,2.722,2.722,0,0,0-2.823,2.823A.487.487,0,0,0,29.948,76.861Z" transform="translate(-24.594 -71.016)" fill="#d8c085"/>
  <path id="Path_5593" data-name="Path 5593" d="M52.878,74.517h3.307a.488.488,0,0,0,0-.977H52.878a.488.488,0,0,0,0,.977Z" transform="translate(-43.044 -71.008)" fill="#d8c085"/>
</svg>
