<svg id="talaei_balesh" xmlns="http://www.w3.org/2000/svg" width="33.91" height="26.512" viewBox="0 0 33.91 26.512">
  <path id="Path_5581" data-name="Path 5581" d="M43.5,56.043a1.806,1.806,0,0,1-.1-1.707c3.292-7.233.812-14.384-.027-16.4h0a1.835,1.835,0,0,1,.145-1.685,3.849,3.849,0,0,0,.443-1.057.547.547,0,0,0-.149-.547.556.556,0,0,0-.559-.134,4.2,4.2,0,0,0-1.13.525,1.829,1.829,0,0,1-1.342.289,79.8,79.8,0,0,0-23.7,0A1.906,1.906,0,0,1,15.7,35a3.129,3.129,0,0,0-.652-.336.557.557,0,0,0-.625.888,4.3,4.3,0,0,0,.5.488,1.82,1.82,0,0,1,.472,2.2C12.144,45,14.35,51.56,15.449,54.064a1.834,1.834,0,0,1-.541,2.159,3.258,3.258,0,0,0-.552.567.52.52,0,0,0,.009.65.533.533,0,0,0,.645.183,3.908,3.908,0,0,0,.683-.358,1.811,1.811,0,0,1,1-.3,1.9,1.9,0,0,1,.47.06c10.454,2.68,20.663.666,23.543-.015a1.854,1.854,0,0,1,1.458.28,3.708,3.708,0,0,0,1.115.479.546.546,0,0,0,.547-.149.556.556,0,0,0,.134-.559A4.352,4.352,0,0,0,43.5,56.043ZM25.88,50.289h-4.8a.453.453,0,0,1-.321-.774l4.024-4.024h-3.7a.454.454,0,0,1,0-.908h4.8a.453.453,0,0,1,.321.774l-4.024,4.024h3.7a.454.454,0,0,1,0,.908ZM29.994,47.2H26.909a.453.453,0,0,1-.321-.774l2.31-2.31H26.566a.454.454,0,0,1,0-.908h3.428a.453.453,0,0,1,.321.774L28,46.3h1.988a.454.454,0,0,1,0,.908Zm4.113-1.714H31.365a.453.453,0,0,1-.321-.774l1.967-1.967H31.364a.454.454,0,1,1,0-.908h2.742a.453.453,0,0,1,.321.774L32.46,44.581h1.647a.454.454,0,0,1,0,.908Zm4.856.65a19.764,19.764,0,0,1,.183-2.17.454.454,0,1,1,.9.125,18.331,18.331,0,0,0-.174,2.068.454.454,0,0,1-.454.441H39.4A.452.452,0,0,1,38.963,46.139Zm2.775,8.5a.455.455,0,0,1-.378.229h-.016a.459.459,0,0,1-.378-.2,14.119,14.119,0,0,1-1.858-5.638.453.453,0,0,1,.9-.118,14.824,14.824,0,0,0,1.329,4.551c2.8-5.682.919-11.88.011-14.217a22.581,22.581,0,0,0-.864,2.655.454.454,0,1,1-.879-.225A24.033,24.033,0,0,1,40.928,37.9a.454.454,0,0,1,.821-.018C41.932,38.244,46.163,46.9,41.738,54.642Z" transform="translate(-12.422 -33.142)" fill="none"/>
  <path id="Path_5582" data-name="Path 5582" d="M38.851,49.6a.536.536,0,0,1-.024-.508c3.5-7.7.879-15.279-.011-17.417h0a.554.554,0,0,1,.044-.514,5.084,5.084,0,0,0,.6-1.409,1.831,1.831,0,0,0-2.3-2.228,5.458,5.458,0,0,0-1.473.688.57.57,0,0,1-.414.091,79.588,79.588,0,0,0-24.117,0,.637.637,0,0,1-.461-.114,4.382,4.382,0,0,0-.915-.476,1.827,1.827,0,0,0-2.043,2.907,5.583,5.583,0,0,0,.656.636.56.56,0,0,1,.136.67C5.037,39.152,7.381,46.134,8.551,48.8a.564.564,0,0,1-.174.659,4.652,4.652,0,0,0-.765.783A1.825,1.825,0,0,0,9.76,53.026a5.349,5.349,0,0,0,.9-.472.568.568,0,0,1,.454-.067,47.1,47.1,0,0,0,11.636,1.391,56.407,56.407,0,0,0,12.515-1.4.573.573,0,0,1,.454.1,4.957,4.957,0,0,0,1.495.654,1.831,1.831,0,0,0,2.228-2.3A5.413,5.413,0,0,0,38.851,49.6ZM38.1,51.851a.545.545,0,0,1-.547.149,3.728,3.728,0,0,1-1.115-.479,1.855,1.855,0,0,0-1.458-.28c-2.88.681-13.089,2.695-23.543.015a1.877,1.877,0,0,0-.47-.06,1.82,1.82,0,0,0-1,.3,3.908,3.908,0,0,1-.683.358.535.535,0,0,1-.645-.183.517.517,0,0,1-.009-.65,3.325,3.325,0,0,1,.552-.567,1.838,1.838,0,0,0,.541-2.159c-1.1-2.506-3.3-9.062-.047-15.817a1.82,1.82,0,0,0-.472-2.2,4.3,4.3,0,0,1-.5-.488.557.557,0,0,1,.625-.888,3.218,3.218,0,0,1,.652.336,1.9,1.9,0,0,0,1.382.323,79.77,79.77,0,0,1,23.7,0,1.841,1.841,0,0,0,1.342-.289,4.2,4.2,0,0,1,1.13-.525.555.555,0,0,1,.559.134.549.549,0,0,1,.149.547,3.794,3.794,0,0,1-.443,1.057,1.835,1.835,0,0,0-.145,1.685h0c.839,2.019,3.32,9.169.027,16.4a1.806,1.806,0,0,0,.1,1.707,4.313,4.313,0,0,1,.458,1.024A.557.557,0,0,1,38.1,51.851Z" transform="translate(-6.689 -27.366)" fill="#d8c085"/>
  <path id="Path_5583" data-name="Path 5583" d="M156.283,52.32a.454.454,0,0,0-.821.018,23.849,23.849,0,0,0-1.324,3.779.454.454,0,1,0,.879.225,22.464,22.464,0,0,1,.864-2.655c.908,2.337,2.793,8.535-.011,14.217a14.825,14.825,0,0,1-1.329-4.551.453.453,0,1,0-.9.118A14.166,14.166,0,0,0,155.5,69.11a.452.452,0,0,0,.378.2h.016a.453.453,0,0,0,.378-.229C160.7,61.338,156.464,52.685,156.283,52.32Z" transform="translate(-126.953 -47.583)" fill="#d8c085"/>
  <path id="Path_5584" data-name="Path 5584" d="M153.3,87.872a.455.455,0,0,0,.454-.441,18.334,18.334,0,0,1,.174-2.068.454.454,0,1,0-.9-.125,19.731,19.731,0,0,0-.183,2.17.454.454,0,0,0,.441.467A.035.035,0,0,1,153.3,87.872Z" transform="translate(-126.307 -74.408)" fill="#d8c085"/>
  <path id="Path_5585" data-name="Path 5585" d="M57.129,95.168h-3.7l4.024-4.024a.45.45,0,0,0,.1-.494.455.455,0,0,0-.419-.28h-4.8a.454.454,0,0,0,0,.908h3.7L52.01,95.3a.45.45,0,0,0-.1.494.455.455,0,0,0,.419.28h4.8a.454.454,0,0,0,0-.908Z" transform="translate(-43.671 -78.929)" fill="#d8c085"/>
  <path id="Path_5586" data-name="Path 5586" d="M85.962,85.9h-1.99l2.31-2.31a.45.45,0,0,0,.1-.494.455.455,0,0,0-.419-.28H82.534a.454.454,0,0,0,0,.908h2.332l-2.31,2.308a.45.45,0,0,0-.1.494.455.455,0,0,0,.419.28h3.085a.453.453,0,1,0,0-.906Z" transform="translate(-68.39 -72.75)" fill="#d8c085"/>
  <path id="Path_5587" data-name="Path 5587" d="M111.7,78.01h-1.647l1.967-1.967a.45.45,0,0,0,.1-.494.455.455,0,0,0-.419-.28h-2.742a.454.454,0,0,0,0,.908H110.6l-1.967,1.967a.45.45,0,0,0-.1.494.455.455,0,0,0,.419.28H111.7a.454.454,0,1,0,0-.908Z" transform="translate(-90.012 -66.571)" fill="#d8c085"/>
</svg>
