<svg id="talaei_taj" xmlns="http://www.w3.org/2000/svg" width="36.525" height="28.598" viewBox="0 0 36.525 28.598">
  <path id="Path_5594" data-name="Path 5594" d="M70.194,97.664V95.838a.723.723,0,0,0-.768-.768H51.848a.716.716,0,0,0-.768.772v1.823Z" transform="translate(-42.377 -81.734)" fill="none"/>
  <rect id="Rectangle_2121" data-name="Rectangle 2121" width="2.575" height="2.575" transform="translate(16.44 6.571) rotate(-45)" fill="none"/>
  <path id="Path_5595" data-name="Path 5595" d="M62.974,117.187a1.745,1.745,0,0,0-1.827-1.827H41.057a1.74,1.74,0,0,0-1.827,1.833v3.079H62.974Z" transform="translate(-32.842 -98.06)" fill="none"/>
  <path id="Path_5596" data-name="Path 5596" d="M17.859,147.49H13.52v1.143H47.31V147.49H17.859Z" transform="translate(-12.154 -123.913)" fill="none"/>
  <path id="Path_5597" data-name="Path 5597" d="M29.112,161.483h.41l.57-1.143H28.54Z" transform="translate(-24.24 -134.253)" fill="none"/>
  <path id="Path_5598" data-name="Path 5598" d="M164.072,161.483h.41l.572-1.143H163.5Z" transform="translate(-132.834 -134.253)" fill="none"/>
  <path id="Path_5599" data-name="Path 5599" d="M20.072,40.34a.685.685,0,0,0,.684-.684V37.15a1.74,1.74,0,0,1,1.827-1.833h2.51a.685.685,0,0,0,.684-.684V32.127A1.74,1.74,0,0,1,27.6,30.294H31.37a.671.671,0,0,0,.379-.115l2.692-1.793a1.255,1.255,0,0,1,1.393,0l2.692,1.793a.691.691,0,0,0,.379.115h3.763A1.74,1.74,0,0,1,44.5,32.121v2.51a.685.685,0,0,0,.684.684H47.69a1.74,1.74,0,0,1,1.833,1.827v7.533a.684.684,0,1,0,1.368,0V37.146A3.1,3.1,0,0,0,47.7,33.952H45.869V32.125a3.1,3.1,0,0,0-3.194-3.194h-3.56L36.6,27.251a2.615,2.615,0,0,0-2.909,0l-2.518,1.68H27.6a3.1,3.1,0,0,0-3.194,3.194v1.827H22.584a3.1,3.1,0,0,0-3.194,3.194v2.51A.68.68,0,0,0,20.072,40.34Z" transform="translate(-16.878 -26.809)" fill="#f3eddf"/>
  <path id="Path_5600" data-name="Path 5600" d="M42.369,99.92H40.543V98.094a.684.684,0,1,0-1.368,0V99.92H38.032V96.837a3.058,3.058,0,0,0-2.706-3.157V91.815a1.7,1.7,0,0,0-1.745-1.745H16a1.7,1.7,0,0,0-1.745,1.745v1.858a3.107,3.107,0,0,0-2.706,3.165V99.92H10.408V93.071a.684.684,0,1,0-1.368,0V99.92H7.214a.685.685,0,0,0-.684.684v2.51a.685.685,0,0,0,.684.684H9.3l1.067,2.133a.68.68,0,0,0,.611.377h1.256a.683.683,0,0,0,.611-.377l1.067-2.133H35.67l1.067,2.133a.682.682,0,0,0,.611.377H38.6a.683.683,0,0,0,.611-.377l1.067-2.133h2.088a.685.685,0,0,0,.684-.684V100.6A.686.686,0,0,0,42.369,99.92ZM16,91.047H33.58a.723.723,0,0,1,.768.768v1.827H15.233V91.819A.717.717,0,0,1,16,91.047Zm-3.083,5.794a1.74,1.74,0,0,1,1.827-1.833H34.834a1.744,1.744,0,0,1,1.827,1.827v3.083H12.918Zm-1.106,8.1H11.4L10.83,103.8h1.553Zm26.366,0h-.41L37.2,103.8h1.555Zm3.507-2.51H7.9v-1.143h33.79v1.143Z" transform="translate(-6.53 -77.711)" fill="#f3eddf"/>
  <path id="Path_5601" data-name="Path 5601" d="M87.3,45.253l-2.51,2.51a.491.491,0,0,0,0,.692l2.51,2.51a.491.491,0,0,0,.692,0l2.51-2.51a.488.488,0,0,0,0-.692l-2.51-2.51A.5.5,0,0,0,87.3,45.253Zm.346,4.675-1.821-1.821,1.821-1.821,1.821,1.821Z" transform="translate(-69.388 -41.539)" fill="#f3eddf"/>
</svg>
