<svg id="talaei_box" xmlns="http://www.w3.org/2000/svg" width="36.513" height="22.145" viewBox="0 0 36.513 22.145">
  <path id="Path_5588" data-name="Path 5588" d="M42.38,55.693H40.553V44.014a.685.685,0,0,0-.684-.684H9.744a.685.685,0,0,0-.684.684V55.693H7.234a.685.685,0,0,0-.684.684v7.479a.685.685,0,0,0,.684.684H9.06v.252a.685.685,0,0,0,.684.684H39.869a.685.685,0,0,0,.684-.684v-.252H42.38a.685.685,0,0,0,.684-.684V56.376A.683.683,0,0,0,42.38,55.693Zm-31.952-11H39.185v11H37.847V51.635a.489.489,0,0,0-.488-.488h-25.1a.489.489,0,0,0-.488.488v4.058H10.428Zm26.442,11H12.743V52.123H36.87ZM41.7,63.169H7.918V57.058H41.7Z" transform="translate(-6.55 -43.33)" fill="#d8bf84"/>
  <rect id="Rectangle_2115" data-name="Rectangle 2115" width="2.522" height="2.522" transform="translate(4.448 1.948)" fill="#d8bf84"/>
  <rect id="Rectangle_2116" data-name="Rectangle 2116" width="2.522" height="2.522" transform="translate(6.971 4.47)" fill="#d8bf84"/>
  <rect id="Rectangle_2117" data-name="Rectangle 2117" width="2.522" height="2.522" transform="translate(9.493 1.948)" fill="#d8bf84"/>
  <rect id="Rectangle_2118" data-name="Rectangle 2118" width="2.522" height="2.522" transform="translate(12.015 4.47)" fill="#d8bf84"/>
  <path id="Path_5589" data-name="Path 5589" d="M83.424,58.344h2.522V55.822H83.482V53.3H80.96v2.522h2.464Z" transform="translate(-66.423 -51.352)" fill="#d8bf84"/>
  <rect id="Rectangle_2119" data-name="Rectangle 2119" width="2.522" height="2.522" transform="translate(19.523 1.948)" fill="#d8bf84"/>
  <rect id="Rectangle_2120" data-name="Rectangle 2120" width="2.522" height="2.522" transform="translate(22.045 4.47)" fill="#d8bf84"/>
  <path id="Path_5590" data-name="Path 5590" d="M134.769,58.344h2.522V55.822h2.516V53.3h-2.522v2.522h-2.464V53.3H132.3v2.522h2.469Z" transform="translate(-107.733 -51.352)" fill="#d8bf84"/>
</svg>
