<svg id="talaei_tebbi" xmlns="http://www.w3.org/2000/svg" width="36.513" height="25.53" viewBox="0 0 36.513 25.53">
  <path id="Path_5602" data-name="Path 5602" d="M38.082,34.66H11.532A4.988,4.988,0,0,0,6.55,39.642v17.18A3.371,3.371,0,0,0,9.918,60.19H39.7a3.371,3.371,0,0,0,3.368-3.368V39.642A4.988,4.988,0,0,0,38.082,34.66ZM41.7,55.527a2.2,2.2,0,0,1-2,1.3H36.888a.488.488,0,0,0,0,.977H39.7a3.152,3.152,0,0,0,1.979-.7A2,2,0,0,1,39.7,58.823H9.918A2,2,0,0,1,7.939,57.1a3.152,3.152,0,0,0,1.979.7h3.905a.488.488,0,0,0,0-.977H9.918a2.2,2.2,0,0,1-2-1.3V53.141A4.965,4.965,0,0,0,11.532,54.7h26.55A4.965,4.965,0,0,0,41.7,53.141Zm0-6.054v.244a3.619,3.619,0,0,1-3.614,3.614H11.532a3.619,3.619,0,0,1-3.614-3.614V39.642a3.619,3.619,0,0,1,3.614-3.614h26.55A3.619,3.619,0,0,1,41.7,39.642Z" transform="translate(-6.55 -34.66)" fill="#d8bf84"/>
  <path id="Path_5603" data-name="Path 5603" d="M116.926,148.1h-7.688a.488.488,0,0,0,0,.977h7.688a.488.488,0,0,0,0-.977Z" transform="translate(-88.784 -125.938)" fill="#d8bf84"/>
  <path id="Path_5604" data-name="Path 5604" d="M59.736,148.1h-1.1a.488.488,0,0,0,0,.977h1.1a.488.488,0,0,0,0-.977Z" transform="translate(-48.069 -125.938)" fill="#d8bf84"/>
  <path id="Path_5605" data-name="Path 5605" d="M29.862,56.394a.592.592,0,1,0-.592-.592A.592.592,0,0,0,29.862,56.394Z" transform="translate(-24.831 -51.195)" fill="#d8bf84"/>
  <path id="Path_5606" data-name="Path 5606" d="M65.782,56.714a.592.592,0,1,0-.592-.592A.592.592,0,0,0,65.782,56.714Z" transform="translate(-53.734 -51.453)" fill="#d8bf84"/>
  <path id="Path_5607" data-name="Path 5607" d="M97.462,56.714a.592.592,0,1,0-.592-.592A.592.592,0,0,0,97.462,56.714Z" transform="translate(-79.225 -51.453)" fill="#d8bf84"/>
  <path id="Path_5608" data-name="Path 5608" d="M130.092,56.394a.592.592,0,1,0-.592-.592A.592.592,0,0,0,130.092,56.394Z" transform="translate(-105.48 -51.195)" fill="#d8bf84"/>
  <path id="Path_5609" data-name="Path 5609" d="M163.712,56.394a.592.592,0,1,0-.592-.592A.592.592,0,0,0,163.712,56.394Z" transform="translate(-132.532 -51.195)" fill="#d8bf84"/>
  <path id="Path_5610" data-name="Path 5610" d="M30.312,83.05a.592.592,0,1,0,.592.592A.592.592,0,0,0,30.312,83.05Z" transform="translate(-25.193 -73.596)" fill="#d8bf84"/>
  <ellipse id="Ellipse_2" data-name="Ellipse 2" cx="0.592" cy="0.592" rx="0.592" ry="0.592" transform="translate(11.544 9.516)" fill="#d8bf84"/>
  <path id="Path_5611" data-name="Path 5611" d="M97.912,83.37a.592.592,0,1,0,.592.592A.592.592,0,0,0,97.912,83.37Z" transform="translate(-79.587 -73.854)" fill="#d8bf84"/>
  <ellipse id="Ellipse_3" data-name="Ellipse 3" cx="0.592" cy="0.592" rx="0.592" ry="0.592" transform="translate(24.108 9.454)" fill="#d8bf84"/>
  <path id="Path_5612" data-name="Path 5612" d="M164.162,83.05a.592.592,0,1,0,.592.592A.592.592,0,0,0,164.162,83.05Z" transform="translate(-132.894 -73.596)" fill="#d8bf84"/>
  <path id="Path_5613" data-name="Path 5613" d="M30.312,111.22a.592.592,0,1,0,.592.592A.592.592,0,0,0,30.312,111.22Z" transform="translate(-25.193 -96.263)" fill="#d8bf84"/>
  <path id="Path_5614" data-name="Path 5614" d="M66.232,111.53a.592.592,0,1,0,.592.592A.592.592,0,0,0,66.232,111.53Z" transform="translate(-54.096 -96.512)" fill="#d8bf84"/>
  <path id="Path_5615" data-name="Path 5615" d="M97.912,111.53a.592.592,0,1,0,.592.592A.592.592,0,0,0,97.912,111.53Z" transform="translate(-79.587 -96.512)" fill="#d8bf84"/>
  <path id="Path_5616" data-name="Path 5616" d="M130.542,111.22a.592.592,0,1,0,.592.592A.592.592,0,0,0,130.542,111.22Z" transform="translate(-105.842 -96.263)" fill="#d8bf84"/>
  <path id="Path_5617" data-name="Path 5617" d="M164.162,111.22a.592.592,0,1,0,.592.592A.592.592,0,0,0,164.162,111.22Z" transform="translate(-132.894 -96.263)" fill="#d8bf84"/>
</svg>
