<svg id="talaei_tebbi_motasel" xmlns="http://www.w3.org/2000/svg" width="36.513" height="25.53" viewBox="0 0 36.513 25.53">
  <path id="Path_5636" data-name="Path 5636" d="M38.082,34.66H11.532A4.988,4.988,0,0,0,6.55,39.642v17.18A3.371,3.371,0,0,0,9.918,60.19H39.7a3.371,3.371,0,0,0,3.368-3.368V39.642A4.988,4.988,0,0,0,38.082,34.66ZM7.918,39.642a3.619,3.619,0,0,1,3.614-3.614h26.55A3.619,3.619,0,0,1,41.7,39.642V49.719a3.619,3.619,0,0,1-3.614,3.614H11.532a3.619,3.619,0,0,1-3.614-3.614V39.642ZM39.7,58.823H9.918A2,2,0,0,1,7.939,57.1a3.152,3.152,0,0,0,1.979.7h3.905a.488.488,0,0,0,0-.977H9.918a2.2,2.2,0,0,1-2-1.3V53.141A4.965,4.965,0,0,0,11.532,54.7h26.55A4.965,4.965,0,0,0,41.7,53.141v2.385a2.2,2.2,0,0,1-2,1.3H36.888a.488.488,0,0,0,0,.977H39.7a3.152,3.152,0,0,0,1.979-.7A2,2,0,0,1,39.7,58.823Z" transform="translate(-6.55 -34.66)" fill="#d8c085"/>
  <path id="Path_5637" data-name="Path 5637" d="M116.926,148.1h-7.688a.488.488,0,0,0,0,.977h7.688a.488.488,0,0,0,0-.977Z" transform="translate(-88.784 -125.938)" fill="#d8c085"/>
  <path id="Path_5638" data-name="Path 5638" d="M59.736,148.1h-1.1a.488.488,0,0,0,0,.977h1.1a.488.488,0,0,0,0-.977Z" transform="translate(-48.069 -125.938)" fill="#d8c085"/>
  <path id="Path_5639" data-name="Path 5639" d="M23.328,53.659a.488.488,0,0,0,0,.977h1.327V59.08H23.369a.488.488,0,0,0,0,.977h1.285v1.211a.488.488,0,1,0,.977,0V60.057H31.2v1.235a.488.488,0,1,0,.977,0V60.057h5.212V61.2a.488.488,0,1,0,.977,0V60.057h5.4v1.059a.488.488,0,0,0,.977,0V60.057h5.607v1.059a.488.488,0,0,0,.977,0V60.057h1.231a.488.488,0,1,0,0-.977H51.328V54.635h1.244a.488.488,0,0,0,0-.977H51.328V49.091h1.26a.488.488,0,0,0,0-.977h-1.26V46.9a.488.488,0,1,0-.977,0v1.215H44.742V46.9a.488.488,0,1,0-.977,0v1.215h-5.4V46.9a.488.488,0,1,0-.977,0v1.215h-5.21V46.838a.488.488,0,1,0-.977,0v1.276h-5.57V46.838a.488.488,0,1,0-.977,0v1.276H23.387a.488.488,0,0,0,0,.977h1.268v4.57H23.328Zm2.3,5.421V54.635H31.2V59.08Zm10.5,0H32.178V54.635h5.212V59.08Zm6.375,0h-4.14V54.635h5.4V59.08Zm7.842,0H44.742V54.635h5.6V59.08ZM46,49.091h4.347v4.57h-5.6v-4.57Zm-6.375,0h4.14v4.57h-5.4v-4.57Zm-3.466,0h1.231v4.57H32.178v-4.57Zm-10.53,0H31.2v4.57h-5.57Z" transform="translate(-19.658 -44.066)" fill="#d8c085"/>
</svg>
