<svg id="talaei_tebbi_monfasel" xmlns="http://www.w3.org/2000/svg" width="36.513" height="25.53" viewBox="0 0 36.513 25.53">
  <path id="Path_5618" data-name="Path 5618" d="M38.082,34.66H11.532A4.988,4.988,0,0,0,6.55,39.642v17.18A3.371,3.371,0,0,0,9.918,60.19H39.7a3.371,3.371,0,0,0,3.368-3.368V39.642A4.988,4.988,0,0,0,38.082,34.66ZM7.918,39.642a3.619,3.619,0,0,1,3.614-3.614h26.55A3.619,3.619,0,0,1,41.7,39.642V49.719a3.619,3.619,0,0,1-3.614,3.614H11.532a3.619,3.619,0,0,1-3.614-3.614V39.642ZM39.7,58.823H9.918A2,2,0,0,1,7.939,57.1a3.152,3.152,0,0,0,1.979.7h3.905a.488.488,0,0,0,0-.977H9.918a2.2,2.2,0,0,1-2-1.3V53.141A4.965,4.965,0,0,0,11.532,54.7h26.55A4.965,4.965,0,0,0,41.7,53.141v2.385a2.2,2.2,0,0,1-2,1.3H36.888a.488.488,0,0,0,0,.977H39.7a3.152,3.152,0,0,0,1.979-.7A2,2,0,0,1,39.7,58.823Z" transform="translate(-6.55 -34.66)" fill="#d8c085"/>
  <path id="Path_5619" data-name="Path 5619" d="M116.926,148.1h-7.688a.488.488,0,0,0,0,.977h7.688a.488.488,0,0,0,0-.977Z" transform="translate(-88.784 -125.938)" fill="#d8c085"/>
  <path id="Path_5620" data-name="Path 5620" d="M59.736,148.1h-1.1a.488.488,0,0,0,0,.977h1.1a.488.488,0,0,0,0-.977Z" transform="translate(-48.069 -125.938)" fill="#d8c085"/>
  <path id="Path_5621" data-name="Path 5621" d="M23.828,49.02h1.231v1.215a.488.488,0,1,0,.977,0V49.02H27.3a.488.488,0,0,0,0-.977h-1.26V46.828a.488.488,0,1,0-.977,0v1.215H23.828a.488.488,0,0,0,0,.977Z" transform="translate(-20.06 -44.058)" fill="#d8c085"/>
  <path id="Path_5622" data-name="Path 5622" d="M23.748,77.41h1.231v1.215a.488.488,0,0,0,.977,0V77.41h1.26a.488.488,0,0,0,0-.977h-1.26V75.218a.488.488,0,1,0-.977,0v1.215H23.748a.488.488,0,0,0,0,.977Z" transform="translate(-19.995 -66.902)" fill="#d8c085"/>
  <path id="Path_5623" data-name="Path 5623" d="M23.678,105.16h1.231v1.215a.488.488,0,0,0,.977,0V105.16h1.26a.488.488,0,0,0,0-.977h-1.26v-1.215a.488.488,0,1,0-.977,0v1.215H23.678a.488.488,0,0,0,0,.977Z" transform="translate(-19.939 -89.23)" fill="#d8c085"/>
  <path id="Path_5624" data-name="Path 5624" d="M57.338,49.02h1.231v1.215a.488.488,0,1,0,.977,0V49.02h1.26a.488.488,0,0,0,0-.977h-1.26V46.828a.488.488,0,1,0-.977,0v1.215H57.338a.488.488,0,0,0,0,.977Z" transform="translate(-47.023 -44.058)" fill="#d8c085"/>
  <path id="Path_5625" data-name="Path 5625" d="M57.258,77.41h1.231v1.215a.488.488,0,0,0,.977,0V77.41h1.26a.488.488,0,1,0,0-.977h-1.26V75.218a.488.488,0,1,0-.977,0v1.215H57.258a.488.488,0,0,0,0,.977Z" transform="translate(-46.959 -66.902)" fill="#d8c085"/>
  <path id="Path_5626" data-name="Path 5626" d="M57.188,105.16h1.231v1.215a.488.488,0,0,0,.977,0V105.16h1.26a.488.488,0,1,0,0-.977H59.4v-1.215a.488.488,0,1,0-.977,0v1.215H57.188a.488.488,0,0,0,0,.977Z" transform="translate(-46.903 -89.23)" fill="#d8c085"/>
  <path id="Path_5627" data-name="Path 5627" d="M89.018,49.34h1.231v1.215a.488.488,0,0,0,.977,0V49.34h1.26a.488.488,0,0,0,0-.977h-1.26V47.148a.488.488,0,1,0-.977,0v1.215H89.018a.488.488,0,0,0,0,.977Z" transform="translate(-72.514 -44.316)" fill="#d8c085"/>
  <path id="Path_5628" data-name="Path 5628" d="M88.938,77.72h1.231v1.215a.488.488,0,0,0,.977,0V77.72h1.26a.488.488,0,0,0,0-.977h-1.26V75.528a.488.488,0,0,0-.977,0v1.215H88.938a.488.488,0,0,0,0,.977Z" transform="translate(-72.45 -67.151)" fill="#d8c085"/>
  <path id="Path_5629" data-name="Path 5629" d="M88.868,105.47H90.1v1.215a.488.488,0,1,0,.977,0V105.47h1.26a.488.488,0,1,0,0-.977h-1.26v-1.215a.488.488,0,0,0-.977,0v1.215H88.868a.488.488,0,1,0,0,.977Z" transform="translate(-72.393 -89.48)" fill="#d8c085"/>
  <path id="Path_5630" data-name="Path 5630" d="M121.648,49.34h1.231v1.215a.488.488,0,1,0,.977,0V49.34h1.26a.488.488,0,0,0,0-.977h-1.26V47.148a.488.488,0,1,0-.977,0v1.215h-1.231a.488.488,0,1,0,0,.977Z" transform="translate(-98.769 -44.316)" fill="#d8c085"/>
  <path id="Path_5631" data-name="Path 5631" d="M121.568,77.72H122.8v1.215a.488.488,0,1,0,.977,0V77.72h1.26a.488.488,0,0,0,0-.977h-1.26V75.528a.488.488,0,1,0-.977,0v1.215h-1.231a.488.488,0,0,0,0,.977Z" transform="translate(-98.705 -67.151)" fill="#d8c085"/>
  <path id="Path_5632" data-name="Path 5632" d="M121.5,105.47h1.231v1.215a.488.488,0,1,0,.977,0V105.47h1.26a.488.488,0,1,0,0-.977h-1.26v-1.215a.488.488,0,0,0-.977,0v1.215H121.5a.488.488,0,1,0,0,.977Z" transform="translate(-98.649 -89.48)" fill="#d8c085"/>
  <path id="Path_5633" data-name="Path 5633" d="M155.338,49.34h1.231v1.215a.488.488,0,1,0,.977,0V49.34h1.26a.488.488,0,0,0,0-.977h-1.26V47.148a.488.488,0,1,0-.977,0v1.215h-1.231a.488.488,0,0,0,0,.977Z" transform="translate(-125.878 -44.316)" fill="#d8c085"/>
  <path id="Path_5634" data-name="Path 5634" d="M155.268,77.72H156.5v1.215a.488.488,0,1,0,.977,0V77.72h1.26a.488.488,0,0,0,0-.977h-1.26V75.528a.488.488,0,1,0-.977,0v1.215h-1.231a.488.488,0,0,0,0,.977Z" transform="translate(-125.821 -67.151)" fill="#d8c085"/>
  <path id="Path_5635" data-name="Path 5635" d="M155.188,105.47h1.231v1.215a.488.488,0,1,0,.977,0V105.47h1.26a.488.488,0,1,0,0-.977H157.4v-1.215a.488.488,0,0,0-.977,0v1.215h-1.231a.488.488,0,1,0,0,.977Z" transform="translate(-125.757 -89.48)" fill="#d8c085"/>
</svg>
